[img]http://img21.imageshack.us/img21/8485/mv5bmtcymdixote3nv5bml5.jpg[/img]

[img]http://leetleech.org/images/48874973695367351744.png[/img]

Format                           : AVI
Format/Info                      : Audio Video Interleave
File size                        : 1.24 GiB
Duration                         : 1h 39mn
Overall bit rate                 : 1 780 Kbps
Writing library                  : VirtualDub build 32839/release

Video
ID                               : 0
Format                           : MPEG-4 Visual
Format profile                   : Advanced Simple@L5
Format settings, BVOP            : Yes
Format settings, QPel            : No
Format settings, GMC             : No warppoints
Format settings, Matrix          : Custom
Codec ID                         : XVID
Codec ID/Hint                    : XviD
Duration                         : 1h 39mn
Bit rate                         : 1 579 Kbps
Width                            : 720 pixels
Height                           : 384 pixels
Display aspect ratio             : 1.875
Frame rate                       : 23.976 fps
Color space                      : YUV
Chroma subsampling               : 4:2:0
Bit depth                        : 8 bits
Scan type                        : Progressive
Bits/(Pixel*Frame)               : 0.238
Stream size                      : 1.10 GiB (89%)
Writing library                  : XviD 1.2.1 (UTC 2008-12-04)

Audio
ID                               : 1
Format                           : AC-3
Format/Info                      : Audio Coding 3
Mode extension                   : CM (complete main)
Codec ID                         : 2000
Duration                         : 1h 39mn
Bit rate mode                    : Constant
Bit rate                         : 192 Kbps
Channel(s)                       : 2 channels
Channel positions                : Front: L R
Sampling rate                    : 48.0 KHz
Bit depth                        : 16 bits
Stream size                      : 137 MiB (11%)
Alignment                        : Aligned on interleaves
Interleave, duration             : 42 ms (1.00 video frame)
Interleave, preload duration     : 512 ms

[url]http://www.imdb.com/title/tt1630564/[/url]


A tough undercover cop inadvertently gets involved in a dangerous heroin ring when a young defector of the drug trade leaves his five year-old sister in his care.
Director:
Damian Lee
Writer:
Damian Lee
Stars:
Cuba Gooding Jr., Christian Slater and Devon Bostick 


[img]http://leetleech.org/images/95521316153253938506.png[/img]

[img]http://img808.imageshack.us/img808/6686/vlcsnap2011021406h44m13.png[/img]
[img]http://img18.imageshack.us/img18/4633/vlcsnap2011021406h44m43.png[/img]
[img]http://img138.imageshack.us/img138/6117/vlcsnap2011021406h44m33.png[/img]
[img]http://img714.imageshack.us/img714/1615/vlcsnap2011021406h45m14.png[/img]


Video source and audio source - Imagine and friend ( Thanks again guys )